{
	"asset":{
		"generator":"Khronos glTF Blender I/O v4.0.44",
		"version":"2.0"
	},
	"scene":0,
	"scenes":[
		{
			"name":"Scene",
			"nodes":[
				0
			]
		}
	],
	"nodes":[
		{
			"mesh":0,
			"name":"Mesh_0"
		}
	],
	"materials":[
		{
			"name":"Material_0",
			"occlusionTexture":{
				"index":0
			},
			"pbrMetallicRoughness":{
				"baseColorTexture":{
					"index":1
				},
				"metallicFactor":0
			}
		}
	],
	"meshes":[
		{
			"name":"Mesh_0",
			"primitives":[
				{
					"attributes":{
						"POSITION":0,
						"NORMAL":1,
						"TEXCOORD_0":2
					},
					"indices":3,
					"material":0
				}
			]
		}
	],
	"textures":[
		{
			"sampler":0,
			"source":0
		},
		{
			"sampler":0,
			"source":1
		}
	],
	"images":[
		{
			"mimeType":"image/jpeg",
			"name":"Image_1",
			"uri":"Image_1.jpg"
		},
		{
			"mimeType":"image/png",
			"name":"Image_2",
			"uri":"Image_2.png"
		}
	],
	"accessors":[
		{
			"bufferView":0,
			"componentType":5126,
			"count":13924,
			"max":[
				0.6553580164909363,
				1.6351836919784546,
				0.1986434906721115
			],
			"min":[
				-0.6035031080245972,
				0.00994203146547079,
				-0.17084848880767822
			],
			"type":"VEC3"
		},
		{
			"bufferView":1,
			"componentType":5126,
			"count":13924,
			"type":"VEC3"
		},
		{
			"bufferView":2,
			"componentType":5126,
			"count":13924,
			"type":"VEC2"
		},
		{
			"bufferView":3,
			"componentType":5123,
			"count":70608,
			"type":"SCALAR"
		}
	],
	"bufferViews":[
		{
			"buffer":0,
			"byteLength":167088,
			"byteOffset":0,
			"target":34962
		},
		{
			"buffer":0,
			"byteLength":167088,
			"byteOffset":167088,
			"target":34962
		},
		{
			"buffer":0,
			"byteLength":111392,
			"byteOffset":334176,
			"target":34962
		},
		{
			"buffer":0,
			"byteLength":141216,
			"byteOffset":445568,
			"target":34963
		}
	],
	"samplers":[
		{
			"magFilter":9729,
			"minFilter":9987
		}
	],
	"buffers":[
		{
			"byteLength":586784,
			"uri":"Wylie1.bin"
		}
	]
}
